# xmcd
#
# Track frame offsets:
#	150
#	26430
#	44908
#	59090
#	82458
#	102910
#	126985
#	150045
#	162650
#	181343
#	202200
#
# Disc length: 2956 seconds
#
# Revision: 0
# Processed by: cddbd v1.4PL0 Copyright (c) Steve Scherf et al.
# Submitted via: audiograbber 1.82.02
#
DISCID=a30b8a0b
DTITLE=Sydney Ellis - Goin Home
DYEAR=1994
DGENRE=Blues
TTITLE0=Summertime
TTITLE1=Bitch with an attitude
TTITLE2=Graveyard blues
TTITLE3=Piece of crap
TTITLE4=The blues have got me again
TTITLE5=Trouble in mind
TTITLE6=Cryin' the blues
TTITLE7=Nobody's fault but mine
TTITLE8=Fireplace blues
TTITLE9=Ain't as bad as you feel
TTITLE10=You won't do right
EXTD=
EXTT0=
EXTT1=
EXTT2=
EXTT3=
EXTT4=
EXTT5=
EXTT6=
EXTT7=
EXTT8=
EXTT9=
EXTT10=
PLAYORDER=
